<svg width="192" height="56" viewBox="0 0 192 56" fill="none" xmlns="http://www.w3.org/2000/svg">
<path d="M22.742 55.9822L7.57406 40.771C2.72446 35.9078 0 29.3115 0 22.4335C0 15.5557 2.72446 8.95956 7.57406 4.09615L11.6508 0.0078125L26.8274 15.2275C31.673 20.0917 34.3943 26.6865 34.3928 33.5626C34.3912 40.4381 31.6668 47.0318 26.8188 51.8936L22.742 55.9822Z" fill="white"/>
<path d="M18.6669 15.2282L33.852 0L37.9288 4.08834C40.3325 6.49678 42.2392 9.35667 43.5404 12.5046C44.8415 15.6526 45.5112 19.0267 45.5112 22.4344C45.5112 25.8421 44.8415 29.2163 43.5404 32.3643C42.2392 35.5121 40.3325 38.3718 37.9288 40.7804L22.7521 56L18.6669 51.9033C13.8173 47.0397 11.0928 40.4435 11.0928 33.5658C11.0928 26.6878 13.8173 20.0916 18.6669 15.2282Z" fill="white"/>
<path d="M78.8933 44.1558C75.6191 44.1558 73.0294 43.4257 71.1244 41.9655C69.2194 40.4755 68.2668 38.4938 68.2668 36.0203V34.5452C68.2668 34.2472 68.4157 34.0982 68.7133 34.0982H70.0975C70.3951 34.0982 70.544 34.2472 70.544 34.5452V35.8862C70.544 37.7339 71.303 39.2239 72.8211 40.3563C74.3391 41.4887 76.4227 42.0549 79.0719 42.0549C81.5425 42.0549 83.4326 41.5483 84.7424 40.5351C86.0521 39.4921 86.7069 38.0617 86.7069 36.2438C86.7069 35.1412 86.4093 34.1876 85.8139 33.383C85.2484 32.5486 84.3554 31.7738 83.135 31.0586C81.9443 30.3434 80.2477 29.5239 78.045 28.6001C75.7232 27.6167 73.967 26.7972 72.7764 26.1416C71.6155 25.486 70.6779 24.6665 69.9635 23.6831C69.2491 22.6699 68.8919 21.3735 68.8919 19.7941C68.8919 17.3505 69.7254 15.4731 71.3923 14.1619C73.0889 12.8209 75.4256 12.1504 78.4022 12.1504C81.6467 12.1504 84.1917 12.8954 86.0372 14.3854C87.8827 15.8754 88.8054 17.872 88.8054 20.3752V21.4034C88.8054 21.7014 88.6566 21.8504 88.3589 21.8504H86.8855C86.5879 21.8504 86.439 21.7014 86.439 21.4034V20.5093C86.439 18.6319 85.7246 17.127 84.2959 15.9946C82.8671 14.8324 80.8579 14.2513 78.2682 14.2513C76.006 14.2513 74.2647 14.7281 73.0443 15.6817C71.8239 16.6055 71.2137 17.9465 71.2137 19.7047C71.2137 20.8967 71.4965 21.8653 72.062 22.6103C72.6276 23.3553 73.4313 24.0109 74.4731 24.5771C75.5446 25.1135 77.1818 25.8287 79.3845 26.7227C81.5872 27.6167 83.3582 28.4809 84.6977 29.3153C86.067 30.1199 87.1385 31.0735 87.9124 32.1761C88.6864 33.2787 89.0733 34.6048 89.0733 36.1544C89.0733 38.5683 88.1803 40.5053 86.3944 41.9655C84.6084 43.4257 82.1081 44.1558 78.8933 44.1558ZM103.988 42.0549C105.387 42.0549 106.577 41.742 107.56 41.1162C108.572 40.4606 109.36 39.5666 109.926 38.4342C110.075 38.166 110.268 38.0915 110.506 38.2107L111.667 38.7918C111.935 38.9408 112.01 39.1345 111.891 39.3729C111.236 40.8331 110.194 41.9953 108.765 42.8595C107.366 43.7237 105.714 44.1558 103.809 44.1558C101.725 44.1558 99.9544 43.6492 98.4958 42.636C97.0373 41.6228 96.0401 40.2371 95.5043 38.4789C95.2662 37.7339 95.1025 36.8994 95.0132 35.9756C94.9239 35.0518 94.8792 33.8896 94.8792 32.489C94.8792 31.0288 94.8941 29.9262 94.9239 29.1812C94.9834 28.4362 95.0876 27.7508 95.2364 27.125C95.7127 25.2476 96.6801 23.7427 98.1386 22.6103C99.6269 21.4779 101.443 20.9116 103.586 20.9116C106.027 20.9116 107.976 21.5524 109.435 22.8338C110.893 24.0854 111.801 25.8287 112.158 28.0637C112.248 28.6299 112.307 29.3004 112.337 30.0752C112.367 30.8202 112.382 31.7589 112.382 32.8913C112.382 33.1893 112.233 33.3383 111.935 33.3383H97.3796C97.2605 33.3383 97.201 33.3979 97.201 33.5171C97.201 35.4243 97.2754 36.6909 97.4242 37.3167C97.7517 38.7769 98.4809 39.9391 99.612 40.8033C100.773 41.6377 102.231 42.0549 103.988 42.0549ZM97.5135 27.6614C97.3647 28.2276 97.2605 29.3898 97.201 31.148C97.201 31.2672 97.2605 31.3268 97.3796 31.3268H109.837C109.956 31.3268 110.015 31.2672 110.015 31.148C110.015 29.658 109.941 28.5405 109.792 27.7955C109.465 26.3651 108.75 25.2178 107.649 24.3536C106.548 23.4596 105.193 23.0126 103.586 23.0126C101.978 23.0126 100.639 23.4447 99.5674 24.3089C98.4958 25.1433 97.8112 26.2608 97.5135 27.6614ZM128.11 20.9563C130.402 20.9563 132.248 21.6567 133.647 23.0573C135.076 24.4579 135.79 26.3055 135.79 28.6001V43.3512C135.79 43.6492 135.641 43.7982 135.343 43.7982H133.87C133.572 43.7982 133.423 43.6492 133.423 43.3512V29.0471C133.423 27.2889 132.888 25.8585 131.816 24.7559C130.745 23.6235 129.346 23.0573 127.619 23.0573C125.833 23.0573 124.389 23.6086 123.288 24.7112C122.187 25.784 121.636 27.1995 121.636 28.9577V43.3512C121.636 43.6492 121.487 43.7982 121.19 43.7982H119.716C119.419 43.7982 119.27 43.6492 119.27 43.3512V21.7163C119.27 21.4182 119.419 21.2693 119.716 21.2693H121.19C121.487 21.2693 121.636 21.4182 121.636 21.7163V23.9066C121.636 23.996 121.651 24.0556 121.681 24.0854C121.74 24.0854 121.785 24.0556 121.815 23.996C122.47 23.0126 123.333 22.2676 124.404 21.761C125.476 21.2245 126.711 20.9563 128.11 20.9563ZM152.628 22.8338C152.628 23.1318 152.479 23.2808 152.181 23.2808H146.957C146.838 23.2808 146.779 23.3404 146.779 23.4596V37.5849C146.779 39.1047 147.121 40.1775 147.805 40.8033C148.49 41.3993 149.591 41.6973 151.109 41.6973H152.136C152.434 41.6973 152.583 41.8463 152.583 42.1443V43.3512C152.583 43.6492 152.434 43.7982 152.136 43.7982L150.797 43.8429C148.713 43.8429 147.136 43.4406 146.064 42.636C145.022 41.8314 144.487 40.3563 144.457 38.2107V23.4596C144.457 23.3404 144.397 23.2808 144.278 23.2808H141.599C141.302 23.2808 141.153 23.1318 141.153 22.8338V21.7163C141.153 21.4182 141.302 21.2693 141.599 21.2693H144.278C144.397 21.2693 144.457 21.2096 144.457 21.0904V15.9946C144.457 15.6966 144.606 15.5476 144.903 15.5476H146.332C146.63 15.5476 146.779 15.6966 146.779 15.9946V21.0904C146.779 21.2096 146.838 21.2693 146.957 21.2693H152.181C152.479 21.2693 152.628 21.4182 152.628 21.7163V22.8338ZM167.78 21.0904C168.792 21.0904 169.656 21.2692 170.37 21.6269C170.608 21.7163 170.697 21.91 170.638 22.208L170.236 23.6384C170.147 23.9364 169.953 24.0258 169.656 23.9066C169.06 23.6682 168.316 23.5639 167.423 23.5937C165.756 23.6235 164.372 24.2642 163.271 25.5158C162.199 26.7376 161.663 28.2425 161.663 30.0305V43.3512C161.663 43.6492 161.515 43.7982 161.217 43.7982H159.744C159.446 43.7982 159.297 43.6492 159.297 43.3512V21.7163C159.297 21.4182 159.446 21.2693 159.744 21.2693H161.217C161.515 21.2693 161.663 21.4182 161.663 21.7163V24.7559C161.663 24.8453 161.678 24.9049 161.708 24.9347C161.768 24.9347 161.812 24.89 161.842 24.8006C162.467 23.6384 163.271 22.7295 164.253 22.0739C165.265 21.4182 166.441 21.0904 167.78 21.0904ZM183.606 42.0549C185.005 42.0549 186.196 41.742 187.178 41.1162C188.19 40.4606 188.979 39.5666 189.544 38.4342C189.693 38.166 189.887 38.0915 190.125 38.2107L191.286 38.7918C191.553 38.9408 191.628 39.1345 191.509 39.3729C190.854 40.8331 189.812 41.9953 188.383 42.8595C186.984 43.7237 185.332 44.1558 183.427 44.1558C181.344 44.1558 179.573 43.6492 178.114 42.636C176.656 41.6228 175.658 40.2371 175.123 38.4789C174.884 37.7339 174.721 36.8994 174.631 35.9756C174.542 35.0518 174.498 33.8896 174.498 32.489C174.498 31.0288 174.512 29.9262 174.542 29.1812C174.602 28.4362 174.706 27.7508 174.855 27.125C175.331 25.2476 176.298 23.7427 177.757 22.6103C179.245 21.4779 181.061 20.9116 183.204 20.9116C185.645 20.9116 187.595 21.5524 189.053 22.8338C190.512 24.0854 191.42 25.8287 191.777 28.0637C191.866 28.6299 191.926 29.3004 191.955 30.0752C191.985 30.8202 192 31.7589 192 32.8913C192 33.1893 191.851 33.3383 191.553 33.3383H176.998C176.879 33.3383 176.819 33.3979 176.819 33.5171C176.819 35.4243 176.894 36.6909 177.043 37.3167C177.37 38.7769 178.099 39.9391 179.23 40.8033C180.391 41.6377 181.85 42.0549 183.606 42.0549ZM177.132 27.6614C176.983 28.2276 176.879 29.3898 176.819 31.148C176.819 31.2672 176.879 31.3268 176.998 31.3268H189.455C189.574 31.3268 189.634 31.2672 189.634 31.148C189.634 29.658 189.559 28.5405 189.41 27.7955C189.083 26.3651 188.369 25.2178 187.267 24.3536C186.166 23.4596 184.811 23.0126 183.204 23.0126C181.597 23.0126 180.257 23.4447 179.186 24.3089C178.114 25.1433 177.43 26.2608 177.132 27.6614Z" fill="white"/>
</svg>
