
<svg width="193" height="56" viewBox="0 0 193 56" fill="none" xmlns="http://www.w3.org/2000/svg">
<path d="M23.3012 55.9835L8.09378 40.7724C3.23156 35.9091 0.5 29.3129 0.5 22.4349C0.5 15.5571 3.23156 8.9609 8.09378 4.09749L12.1812 0.00915527L27.3972 15.2288C32.2555 20.093 34.9839 26.6879 34.9823 33.5639C34.9808 40.4395 32.2493 47.0332 27.3886 51.8949L23.3012 55.9835Z" fill="url(#paint0_linear_495_8902)"/>
<path d="M19.2149 15.2282L34.4396 0L38.527 4.08834C40.9369 6.49678 42.8487 9.35667 44.1532 12.5046C45.4577 15.6526 46.1291 19.0267 46.1291 22.4344C46.1291 25.8421 45.4577 29.2163 44.1532 32.3643C42.8487 35.5121 40.9369 38.3718 38.527 40.7804L23.3108 56L19.2149 51.9033C14.3527 47.0397 11.6211 40.4435 11.6211 33.5658C11.6211 26.6878 14.3527 20.0916 19.2149 15.2282Z" fill="url(#paint1_linear_495_8902)"/>
<path d="M79.5995 44.1558C76.3167 44.1558 73.7203 43.4257 71.8103 41.9655C69.9003 40.4755 68.9453 38.4938 68.9453 36.0203V34.5452C68.9453 34.2472 69.0945 34.0982 69.393 34.0982H70.7807C71.0791 34.0982 71.2283 34.2472 71.2283 34.5452V35.8862C71.2283 37.7339 71.9894 39.2239 73.5114 40.3563C75.0334 41.4887 77.1225 42.0549 79.7785 42.0549C82.2555 42.0549 84.1506 41.5483 85.4637 40.5351C86.7768 39.4921 87.4334 38.0617 87.4334 36.2438C87.4334 35.1412 87.135 34.1876 86.5381 33.383C85.9711 32.5486 85.0758 31.7738 83.8522 31.0586C82.6584 30.3434 80.9574 29.5239 78.7489 28.6001C76.4211 27.6167 74.6604 26.7972 73.4666 26.1416C72.3027 25.486 71.3626 24.6665 70.6464 23.6831C69.9302 22.6699 69.572 21.3735 69.572 19.7941C69.572 17.3505 70.4076 15.4731 72.0789 14.1619C73.78 12.8209 76.1227 12.1504 79.107 12.1504C82.36 12.1504 84.9116 12.8954 86.7619 14.3854C88.6122 15.8754 89.5374 17.872 89.5374 20.3752V21.4033C89.5374 21.7014 89.3882 21.8504 89.0897 21.8504H87.6125C87.314 21.8504 87.1648 21.7014 87.1648 21.4033V20.5093C87.1648 18.6319 86.4486 17.127 85.0161 15.9946C83.5836 14.8324 81.5691 14.2513 78.9728 14.2513C76.7046 14.2513 74.9588 14.7281 73.7352 15.6817C72.5116 16.6055 71.8998 17.9465 71.8998 19.7047C71.8998 20.8967 72.1833 21.8653 72.7504 22.6103C73.3174 23.3553 74.1232 24.0109 75.1677 24.5771C76.2421 25.1135 77.8835 25.8287 80.0919 26.7227C82.3003 27.6167 84.076 28.4809 85.419 29.3153C86.7918 30.1199 87.8661 31.0735 88.6421 32.1761C89.418 33.2787 89.806 34.6048 89.806 36.1544C89.806 38.5683 88.9107 40.5053 87.12 41.9655C85.3294 43.4257 82.8226 44.1558 79.5995 44.1558ZM104.759 42.0549C106.162 42.0549 107.356 41.742 108.34 41.1162C109.355 40.4606 110.146 39.5666 110.713 38.4342C110.862 38.166 111.056 38.0915 111.295 38.2107L112.459 38.7918C112.727 38.9408 112.802 39.1345 112.683 39.3729C112.026 40.8331 110.982 41.9953 109.549 42.8595C108.146 43.7237 106.49 44.1558 104.58 44.1558C102.491 44.1558 100.715 43.6492 99.253 42.636C97.7907 41.6228 96.7909 40.2371 96.2537 38.4789C96.015 37.7338 95.8508 36.8994 95.7613 35.9756C95.6718 35.0518 95.627 33.8896 95.627 32.489C95.627 31.0288 95.6419 29.9262 95.6718 29.1812C95.7315 28.4362 95.8359 27.7508 95.9851 27.125C96.4626 25.2476 97.4326 23.7427 98.8949 22.6103C100.387 21.4778 102.208 20.9116 104.356 20.9116C106.803 20.9116 108.758 21.5523 110.221 22.8338C111.683 24.0854 112.593 25.8287 112.951 28.0637C113.041 28.6299 113.1 29.3004 113.13 30.0752C113.16 30.8202 113.175 31.7589 113.175 32.8913C113.175 33.1893 113.026 33.3383 112.727 33.3383H98.1339C98.0145 33.3383 97.9548 33.3979 97.9548 33.5171C97.9548 35.4243 98.0294 36.6908 98.1786 37.3167C98.5069 38.7769 99.2381 39.9391 100.372 40.8033C101.536 41.6377 102.998 42.0549 104.759 42.0549ZM98.2682 27.6614C98.119 28.2276 98.0145 29.3898 97.9548 31.148C97.9548 31.2672 98.0145 31.3268 98.1339 31.3268H110.623C110.743 31.3268 110.802 31.2672 110.802 31.148C110.802 29.658 110.728 28.5405 110.579 27.7955C110.25 26.3651 109.534 25.2178 108.43 24.3536C107.326 23.4596 105.968 23.0126 104.356 23.0126C102.745 23.0126 101.402 23.4447 100.327 24.3089C99.253 25.1433 98.5666 26.2608 98.2682 27.6614ZM128.945 20.9563C131.243 20.9563 133.093 21.6566 134.495 23.0573C135.928 24.4579 136.644 26.3055 136.644 28.6001V43.3512C136.644 43.6492 136.495 43.7982 136.197 43.7982H134.719C134.421 43.7982 134.272 43.6492 134.272 43.3512V29.0471C134.272 27.2889 133.734 25.8585 132.66 24.7559C131.586 23.6235 130.183 23.0573 128.452 23.0573C126.662 23.0573 125.214 23.6086 124.11 24.7112C123.006 25.784 122.454 27.1995 122.454 28.9577V43.3512C122.454 43.6492 122.304 43.7982 122.006 43.7982H120.529C120.23 43.7982 120.081 43.6492 120.081 43.3512V21.7162C120.081 21.4182 120.23 21.2692 120.529 21.2692H122.006C122.304 21.2692 122.454 21.4182 122.454 21.7162V23.9066C122.454 23.996 122.469 24.0556 122.498 24.0854C122.558 24.0854 122.603 24.0556 122.633 23.996C123.289 23.0126 124.155 22.2676 125.229 21.761C126.303 21.2245 127.542 20.9563 128.945 20.9563ZM153.526 22.8338C153.526 23.1318 153.376 23.2808 153.078 23.2808H147.841C147.721 23.2808 147.661 23.3404 147.661 23.4596V37.5849C147.661 39.1047 148.005 40.1775 148.691 40.8033C149.377 41.3993 150.482 41.6973 152.004 41.6973H153.033C153.332 41.6973 153.481 41.8463 153.481 42.1443V43.3512C153.481 43.6492 153.332 43.7982 153.033 43.7982L151.69 43.8429C149.601 43.8429 148.02 43.4406 146.945 42.636C145.901 41.8314 145.364 40.3563 145.334 38.2107V23.4596C145.334 23.3404 145.274 23.2808 145.155 23.2808H142.469C142.17 23.2808 142.021 23.1318 142.021 22.8338V21.7162C142.021 21.4182 142.17 21.2692 142.469 21.2692H145.155C145.274 21.2692 145.334 21.2096 145.334 21.0904V15.9946C145.334 15.6966 145.483 15.5476 145.781 15.5476H147.214C147.512 15.5476 147.661 15.6966 147.661 15.9946V21.0904C147.661 21.2096 147.721 21.2692 147.841 21.2692H153.078C153.376 21.2692 153.526 21.4182 153.526 21.7162V22.8338ZM168.718 21.0904C169.733 21.0904 170.598 21.2692 171.314 21.6268C171.553 21.7162 171.643 21.91 171.583 22.208L171.18 23.6384C171.091 23.9364 170.897 24.0258 170.598 23.9066C170.001 23.6682 169.255 23.5639 168.36 23.5937C166.689 23.6235 165.301 24.2642 164.197 25.5158C163.122 26.7376 162.585 28.2425 162.585 30.0305V43.3512C162.585 43.6492 162.436 43.7982 162.137 43.7982H160.66C160.362 43.7982 160.213 43.6492 160.213 43.3512V21.7162C160.213 21.4182 160.362 21.2692 160.66 21.2692H162.137C162.436 21.2692 162.585 21.4182 162.585 21.7162V24.7559C162.585 24.8453 162.6 24.9049 162.63 24.9347C162.69 24.9347 162.734 24.89 162.764 24.8006C163.391 23.6384 164.197 22.7295 165.181 22.0739C166.196 21.4182 167.375 21.0904 168.718 21.0904ZM184.585 42.0549C185.987 42.0549 187.181 41.742 188.166 41.1162C189.181 40.4606 189.972 39.5666 190.539 38.4342C190.688 38.166 190.882 38.0915 191.121 38.2107L192.284 38.7918C192.553 38.9408 192.628 39.1345 192.508 39.3729C191.852 40.8331 190.807 41.9953 189.375 42.8595C187.972 43.7237 186.316 44.1558 184.406 44.1558C182.317 44.1558 180.541 43.6492 179.079 42.636C177.616 41.6228 176.617 40.2371 176.079 38.4789C175.841 37.7338 175.676 36.8994 175.587 35.9756C175.497 35.0518 175.453 33.8896 175.453 32.489C175.453 31.0288 175.468 29.9262 175.497 29.1812C175.557 28.4362 175.662 27.7508 175.811 27.125C176.288 25.2476 177.258 23.7427 178.721 22.6103C180.213 21.4778 182.033 20.9116 184.182 20.9116C186.629 20.9116 188.584 21.5523 190.046 22.8338C191.508 24.0854 192.419 25.8287 192.777 28.0637C192.866 28.6299 192.926 29.3004 192.956 30.0752C192.986 30.8202 193.001 31.7589 193.001 32.8913C193.001 33.1893 192.851 33.3383 192.553 33.3383H177.96C177.84 33.3383 177.78 33.3979 177.78 33.5171C177.78 35.4243 177.855 36.6908 178.004 37.3167C178.333 38.7769 179.064 39.9391 180.198 40.8033C181.362 41.6377 182.824 42.0549 184.585 42.0549ZM178.094 27.6614C177.945 28.2276 177.84 29.3898 177.78 31.148C177.78 31.2672 177.84 31.3268 177.96 31.3268H190.449C190.568 31.3268 190.628 31.2672 190.628 31.148C190.628 29.658 190.553 28.5405 190.404 27.7955C190.076 26.3651 189.36 25.2178 188.256 24.3536C187.151 23.4596 185.793 23.0126 184.182 23.0126C182.57 23.0126 181.227 23.4447 180.153 24.3089C179.079 25.1433 178.392 26.2608 178.094 27.6614Z" fill="#F1F2F2"/>
<defs>
<linearGradient id="paint0_linear_495_8902" x1="34.9967" y1="28.0006" x2="0.494386" y2="28.0006" gradientUnits="userSpaceOnUse">
<stop stop-color="#F9575E"/>
<stop offset="0.27" stop-color="#F8555B"/>
<stop offset="0.49" stop-color="#F44F51"/>
<stop offset="0.68" stop-color="#EE4540"/>
<stop offset="0.87" stop-color="#E63728"/>
<stop offset="1" stop-color="#DE2A13"/>
</linearGradient>
<linearGradient id="paint1_linear_495_8902" x1="-103477" y1="86628.3" x2="-104402" y2="86401.2" gradientUnits="userSpaceOnUse">
<stop stop-color="#F9575E"/>
<stop offset="0.27" stop-color="#F8555B"/>
<stop offset="0.49" stop-color="#F44F51"/>
<stop offset="0.68" stop-color="#EE4540"/>
<stop offset="0.87" stop-color="#E63728"/>
<stop offset="1" stop-color="#DE2A13"/>
</linearGradient>
</defs>
</svg>
