<svg width="193" height="56" viewBox="0 0 193 56" fill="none" xmlns="http://www.w3.org/2000/svg">
<path d="M23.3012 55.9835L8.09378 40.7724C3.23156 35.9091 0.5 29.3129 0.5 22.4349C0.5 15.5571 3.23156 8.9609 8.09378 4.09749L12.1812 0.00915527L27.3972 15.2288C32.2555 20.093 34.9839 26.6879 34.9823 33.5639C34.9808 40.4395 32.2493 47.0332 27.3886 51.8949L23.3012 55.9835Z" fill="url(#paint0_linear_574_9606)"/>
<path d="M19.2149 15.2282L34.4396 0L38.527 4.08834C40.9369 6.49678 42.8487 9.35667 44.1532 12.5046C45.4577 15.6526 46.1291 19.0267 46.1291 22.4344C46.1291 25.8421 45.4577 29.2163 44.1532 32.3643C42.8487 35.5121 40.9369 38.3718 38.527 40.7804L23.3108 56L19.2149 51.9033C14.3527 47.0397 11.6211 40.4435 11.6211 33.5658C11.6211 26.6878 14.3527 20.0916 19.2149 15.2282Z" fill="url(#paint1_linear_574_9606)"/>
<path d="M79.5995 44.1557C76.3167 44.1557 73.7203 43.4256 71.8103 41.9654C69.9003 40.4753 68.9453 38.4936 68.9453 36.0202V34.5451C68.9453 34.2471 69.0945 34.0981 69.393 34.0981H70.7807C71.0791 34.0981 71.2283 34.2471 71.2283 34.5451V35.8861C71.2283 37.7337 71.9894 39.2237 73.5114 40.3561C75.0334 41.4886 77.1225 42.0548 79.7785 42.0548C82.2555 42.0548 84.1506 41.5482 85.4637 40.5349C86.7768 39.4919 87.4334 38.0615 87.4334 36.2437C87.4334 35.1411 87.135 34.1875 86.5381 33.3829C85.9711 32.5485 85.0758 31.7737 83.8522 31.0585C82.6584 30.3433 80.9574 29.5238 78.7489 28.6C76.4211 27.6166 74.6604 26.7971 73.4666 26.1415C72.3027 25.4859 71.3626 24.6663 70.6464 23.6829C69.9302 22.6697 69.572 21.3734 69.572 19.794C69.572 17.3504 70.4076 15.473 72.0789 14.1618C73.78 12.8208 76.1227 12.1503 79.107 12.1503C82.36 12.1503 84.9116 12.8953 86.7619 14.3853C88.6122 15.8753 89.5374 17.8719 89.5374 20.3751V21.4032C89.5374 21.7012 89.3882 21.8502 89.0897 21.8502H87.6125C87.314 21.8502 87.1648 21.7012 87.1648 21.4032V20.5092C87.1648 18.6318 86.4486 17.1269 85.0161 15.9945C83.5836 14.8323 81.5691 14.2512 78.9728 14.2512C76.7046 14.2512 74.9588 14.728 73.7352 15.6816C72.5116 16.6054 71.8998 17.9464 71.8998 19.7046C71.8998 20.8966 72.1833 21.8651 72.7504 22.6101C73.3174 23.3551 74.1232 24.0107 75.1677 24.5769C76.2421 25.1133 77.8835 25.8286 80.0919 26.7226C82.3003 27.6166 84.076 28.4808 85.419 29.3152C86.7918 30.1198 87.8661 31.0734 88.6421 32.176C89.418 33.2786 89.806 34.6047 89.806 36.1543C89.806 38.5681 88.9107 40.5051 87.12 41.9654C85.3294 43.4256 82.8226 44.1557 79.5995 44.1557ZM104.759 42.0548C106.162 42.0548 107.356 41.7419 108.34 41.116C109.355 40.4604 110.146 39.5664 110.713 38.434C110.862 38.1658 111.056 38.0913 111.295 38.2105L112.459 38.7916C112.727 38.9406 112.802 39.1343 112.683 39.3727C112.026 40.8329 110.982 41.9952 109.549 42.8594C108.146 43.7236 106.49 44.1557 104.58 44.1557C102.491 44.1557 100.715 43.6491 99.253 42.6359C97.7907 41.6227 96.7909 40.2369 96.2537 38.4787C96.015 37.7337 95.8508 36.8993 95.7613 35.9755C95.6718 35.0517 95.627 33.8895 95.627 32.4889C95.627 31.0287 95.6419 29.9261 95.6718 29.1811C95.7315 28.4361 95.8359 27.7507 95.9851 27.1249C96.4626 25.2475 97.4326 23.7425 98.8949 22.6101C100.387 21.4777 102.208 20.9115 104.356 20.9115C106.803 20.9115 108.758 21.5522 110.221 22.8336C111.683 24.0852 112.593 25.8286 112.951 28.0636C113.041 28.6298 113.1 29.3003 113.13 30.0751C113.16 30.8201 113.175 31.7588 113.175 32.8912C113.175 33.1892 113.026 33.3382 112.727 33.3382H98.1339C98.0145 33.3382 97.9548 33.3978 97.9548 33.517C97.9548 35.4242 98.0294 36.6907 98.1786 37.3165C98.5069 38.7767 99.2381 39.9389 100.372 40.8031C101.536 41.6376 102.998 42.0548 104.759 42.0548ZM98.2682 27.6613C98.119 28.2275 98.0145 29.3897 97.9548 31.1479C97.9548 31.2671 98.0145 31.3267 98.1339 31.3267H110.623C110.743 31.3267 110.802 31.2671 110.802 31.1479C110.802 29.6579 110.728 28.5404 110.579 27.7954C110.25 26.365 109.534 25.2177 108.43 24.3534C107.326 23.4594 105.968 23.0124 104.356 23.0124C102.745 23.0124 101.402 23.4445 100.327 24.3087C99.253 25.1432 98.5666 26.2607 98.2682 27.6613ZM128.945 20.9562C131.243 20.9562 133.093 21.6565 134.495 23.0571C135.928 24.4577 136.644 26.3054 136.644 28.6V43.3511C136.644 43.6491 136.495 43.7981 136.197 43.7981H134.719C134.421 43.7981 134.272 43.6491 134.272 43.3511V29.047C134.272 27.2888 133.734 25.8584 132.66 24.7557C131.586 23.6233 130.183 23.0571 128.452 23.0571C126.662 23.0571 125.214 23.6084 124.11 24.711C123.006 25.7839 122.454 27.1994 122.454 28.9576V43.3511C122.454 43.6491 122.304 43.7981 122.006 43.7981H120.529C120.23 43.7981 120.081 43.6491 120.081 43.3511V21.7161C120.081 21.4181 120.23 21.2691 120.529 21.2691H122.006C122.304 21.2691 122.454 21.4181 122.454 21.7161V23.9064C122.454 23.9958 122.469 24.0554 122.498 24.0852C122.558 24.0852 122.603 24.0554 122.633 23.9958C123.289 23.0124 124.155 22.2674 125.229 21.7608C126.303 21.2244 127.542 20.9562 128.945 20.9562ZM153.526 22.8336C153.526 23.1316 153.376 23.2806 153.078 23.2806H147.841C147.721 23.2806 147.661 23.3402 147.661 23.4594V37.5847C147.661 39.1045 148.005 40.1773 148.691 40.8031C149.377 41.3992 150.482 41.6971 152.004 41.6971H153.033C153.332 41.6971 153.481 41.8462 153.481 42.1442V43.3511C153.481 43.6491 153.332 43.7981 153.033 43.7981L151.69 43.8428C149.601 43.8428 148.02 43.4405 146.945 42.6359C145.901 41.8313 145.364 40.3561 145.334 38.2105V23.4594C145.334 23.3402 145.274 23.2806 145.155 23.2806H142.469C142.17 23.2806 142.021 23.1316 142.021 22.8336V21.7161C142.021 21.4181 142.17 21.2691 142.469 21.2691H145.155C145.274 21.2691 145.334 21.2095 145.334 21.0903V15.9945C145.334 15.6965 145.483 15.5475 145.781 15.5475H147.214C147.512 15.5475 147.661 15.6965 147.661 15.9945V21.0903C147.661 21.2095 147.721 21.2691 147.841 21.2691H153.078C153.376 21.2691 153.526 21.4181 153.526 21.7161V22.8336ZM168.718 21.0903C169.733 21.0903 170.598 21.2691 171.314 21.6267C171.553 21.7161 171.643 21.9098 171.583 22.2078L171.18 23.6382C171.091 23.9362 170.897 24.0256 170.598 23.9064C170.001 23.668 169.255 23.5637 168.36 23.5935C166.689 23.6233 165.301 24.264 164.197 25.5157C163.122 26.7375 162.585 28.2424 162.585 30.0304V43.3511C162.585 43.6491 162.436 43.7981 162.137 43.7981H160.66C160.362 43.7981 160.213 43.6491 160.213 43.3511V21.7161C160.213 21.4181 160.362 21.2691 160.66 21.2691H162.137C162.436 21.2691 162.585 21.4181 162.585 21.7161V24.7557C162.585 24.8451 162.6 24.9047 162.63 24.9345C162.69 24.9345 162.734 24.8898 162.764 24.8004C163.391 23.6382 164.197 22.7293 165.181 22.0737C166.196 21.4181 167.375 21.0903 168.718 21.0903ZM184.585 42.0548C185.987 42.0548 187.181 41.7419 188.166 41.116C189.181 40.4604 189.972 39.5664 190.539 38.434C190.688 38.1658 190.882 38.0913 191.121 38.2105L192.284 38.7916C192.553 38.9406 192.628 39.1343 192.508 39.3727C191.852 40.8329 190.807 41.9952 189.375 42.8594C187.972 43.7236 186.316 44.1557 184.406 44.1557C182.317 44.1557 180.541 43.6491 179.079 42.6359C177.616 41.6227 176.617 40.2369 176.079 38.4787C175.841 37.7337 175.676 36.8993 175.587 35.9755C175.497 35.0517 175.453 33.8895 175.453 32.4889C175.453 31.0287 175.468 29.9261 175.497 29.1811C175.557 28.4361 175.662 27.7507 175.811 27.1249C176.288 25.2475 177.258 23.7425 178.721 22.6101C180.213 21.4777 182.033 20.9115 184.182 20.9115C186.629 20.9115 188.584 21.5522 190.046 22.8336C191.508 24.0852 192.419 25.8286 192.777 28.0636C192.866 28.6298 192.926 29.3003 192.956 30.0751C192.986 30.8201 193.001 31.7588 193.001 32.8912C193.001 33.1892 192.851 33.3382 192.553 33.3382H177.96C177.84 33.3382 177.78 33.3978 177.78 33.517C177.78 35.4242 177.855 36.6907 178.004 37.3165C178.333 38.7767 179.064 39.9389 180.198 40.8031C181.362 41.6376 182.824 42.0548 184.585 42.0548ZM178.094 27.6613C177.945 28.2275 177.84 29.3897 177.78 31.1479C177.78 31.2671 177.84 31.3267 177.96 31.3267H190.449C190.568 31.3267 190.628 31.2671 190.628 31.1479C190.628 29.6579 190.553 28.5404 190.404 27.7954C190.076 26.365 189.36 25.2177 188.256 24.3534C187.151 23.4594 185.793 23.0124 184.182 23.0124C182.57 23.0124 181.227 23.4445 180.153 24.3087C179.079 25.1432 178.392 26.2607 178.094 27.6613Z" fill="#484848"/>
<defs>
<linearGradient id="paint0_linear_574_9606" x1="34.9967" y1="28.0006" x2="0.494386" y2="28.0006" gradientUnits="userSpaceOnUse">
<stop stop-color="#F9575E"/>
<stop offset="0.27" stop-color="#F8555B"/>
<stop offset="0.49" stop-color="#F44F51"/>
<stop offset="0.68" stop-color="#EE4540"/>
<stop offset="0.87" stop-color="#E63728"/>
<stop offset="1" stop-color="#DE2A13"/>
</linearGradient>
<linearGradient id="paint1_linear_574_9606" x1="-103477" y1="86628.3" x2="-104402" y2="86401.2" gradientUnits="userSpaceOnUse">
<stop stop-color="#F9575E"/>
<stop offset="0.27" stop-color="#F8555B"/>
<stop offset="0.49" stop-color="#F44F51"/>
<stop offset="0.68" stop-color="#EE4540"/>
<stop offset="0.87" stop-color="#E63728"/>
<stop offset="1" stop-color="#DE2A13"/>
</linearGradient>
</defs>
</svg>
